<?xml version="1.0" standalone="no"?>
<!DOCTYPE svg PUBLIC "-//W3C//DTD SVG 20010904//EN"
 "http://www.w3.org/TR/2001/REC-SVG-20010904/DTD/svg10.dtd">
<svg version="1.0" xmlns="http://www.w3.org/2000/svg"
 width="500.000000pt" height="500.000000pt" viewBox="0 0 500.000000 500.000000"
 preserveAspectRatio="xMidYMid meet">

<g transform="translate(0.000000,500.000000) scale(0.100000,-0.100000)"
fill="#000000" stroke="none">
<path d="M3320 4520 l-235 -6 280 -2 c623 -6 739 -13 819 -54 21 -11 35 -15
32 -10 -12 20 -89 52 -159 67 -75 15 -231 16 -737 5z"/>
<path d="M894 4492 c-98 -39 -187 -96 -222 -140 -46 -58 -100 -163 -111 -214
-14 -59 -16 -3096 -3 -3149 5 -20 15 -44 21 -55 11 -17 12 -15 7 11 -24 137
-27 300 -24 1670 4 1571 0 1465 60 1592 42 89 147 192 240 236 40 19 94 40
120 46 32 7 230 11 605 12 307 1 585 4 618 8 33 3 -232 7 -590 8 l-650 3 -71
-28z"/>
<path d="M2622 4513 c59 -2 158 -2 220 0 62 1 14 3 -107 3 -121 0 -172 -2
-113 -3z"/>
<path d="M2359 4127 c-236 -64 -406 -201 -500 -402 -95 -203 -92 -430 10 -640
73 -150 178 -252 359 -346 l83 -43 180 -4 c208 -5 287 6 335 46 18 15 60 43
94 62 122 68 243 228 295 391 36 112 45 292 20 389 -58 226 -185 386 -380 480
-125 61 -194 80 -315 86 -79 4 -110 0 -181 -19z m256 -132 c283 -46 475 -279
478 -580 1 -111 -14 -176 -64 -282 -58 -122 -159 -216 -284 -262 -29 -11 -97
-25 -152 -32 -87 -11 -112 -10 -182 3 -147 29 -255 92 -335 196 -95 124 -136
239 -136 381 0 113 9 149 62 259 87 179 220 281 413 317 92 17 96 17 200 0z"/>
<path d="M2637 3886 c-43 -16 -63 -30 -94 -65 l-23 -26 -22 27 c-40 47 -87 68
-152 68 -72 0 -113 -23 -157 -87 -38 -55 -46 -104 -29 -186 16 -78 29 -103 77
-149 48 -47 99 -68 163 -68 l50 0 0 -129 c0 -122 -1 -129 -25 -155 -29 -31
-91 -36 -130 -10 -33 21 -31 39 5 81 17 18 30 44 30 57 0 20 -6 24 -46 29 -84
9 -131 64 -113 130 11 40 0 98 -19 105 -7 2 -30 -14 -52 -36 -37 -37 -40 -44
-40 -96 0 -77 24 -132 71 -162 36 -22 39 -28 39 -70 0 -53 16 -87 62 -131 72
-68 177 -63 259 14 l26 24 34 -34 c49 -49 130 -67 193 -43 79 30 138 123 115
183 -12 33 -14 30 27 43 42 14 89 74 98 125 19 97 -64 190 -127 143 -15 -12
-15 -16 -1 -58 26 -74 4 -105 -92 -130 -32 -8 -45 -18 -57 -42 -19 -39 -16
-44 33 -59 42 -13 48 -23 27 -50 -46 -60 -152 -47 -176 22 -6 18 -11 81 -11
140 l0 109 67 0 c82 0 138 29 184 97 53 76 75 190 50 256 -17 43 -74 99 -126
123 -57 27 -66 28 -118 10z m-250 -131 c55 -23 62 -39 63 -142 l0 -93 -32 0
c-58 1 -114 34 -138 81 -36 69 -14 151 44 162 11 2 22 5 24 6 1 0 19 -6 39
-14z m350 0 c45 -32 49 -119 9 -180 -17 -25 -102 -58 -138 -53 -22 3 -23 8
-26 89 l-3 86 41 37 c44 40 81 46 117 21z"/>
<path d="M2440 2612 c-195 -2 -206 -3 -222 -23 -25 -30 -22 -71 5 -98 36 -33
122 -43 263 -31 66 5 162 10 215 10 80 0 99 3 112 18 22 24 22 75 0 100 -22
24 -78 28 -373 24z"/>
<path d="M2297 2402 c-41 -45 -4 -104 80 -128 64 -19 237 -15 307 6 46 14 83
48 92 86 13 50 -6 54 -246 54 -197 0 -218 -2 -233 -18z"/>
<path d="M3296 1897 c-29 -31 -92 -126 -279 -424 l-48 -76 -54 96 c-93 165
-235 386 -262 407 -30 24 -63 25 -103 5 -27 -14 -28 -17 -34 -117 -4 -57 -5
-246 -4 -420 3 -311 3 -318 25 -339 27 -27 77 -28 112 -1 l26 19 5 263 c6 291
3 284 65 175 44 -79 145 -227 178 -262 17 -18 41 -33 53 -33 32 0 83 68 247
328 49 77 52 66 52 -212 0 -236 1 -255 19 -275 25 -27 85 -28 117 -2 l24 19 0
421 c0 468 3 446 -68 458 -33 5 -41 2 -71 -30z"/>
<path d="M1873 1905 c-133 -37 -232 -118 -286 -233 -28 -59 -32 -80 -35 -170
-5 -113 6 -169 45 -247 54 -109 150 -191 265 -227 141 -43 306 1 413 111 47
49 44 60 -33 103 l-52 30 -42 -36 c-49 -43 -102 -60 -178 -60 -68 0 -119 24
-172 78 -63 65 -81 109 -86 207 -4 71 -1 94 16 131 45 103 140 170 242 170 65
1 113 -17 163 -62 31 -27 42 -31 71 -26 18 4 50 21 71 39 34 29 37 35 26 55
-19 35 -106 99 -168 122 -75 28 -191 35 -260 15z"/>
</g>
</svg>
